<svg data-v-0dd9719b="" version="1.0" xmlns="http://www.w3.org/2000/svg" xmlns:xlink="http://www.w3.org/1999/xlink" width="100%" height="100%" viewBox="0 0 340.000000 250.000000" preserveAspectRatio="xMidYMid meet" color-interpolation-filters="sRGB" style="margin: auto;"> <rect data-v-0dd9719b="" x="0" y="0" width="100%" height="100%" fill="#fff" fill-opacity="0" class="background"></rect> <rect data-v-0dd9719b="" x="0" y="0" width="100%" height="100%" fill="url(#watermark)" fill-opacity="1" class="watermarklayer"></rect> <g data-v-0dd9719b="" fill="#333" class="icon-text-wrapper icon-svg-group iconsvg" transform="translate(85.125,71.29418182419613)"><g class="iconsvg-imagesvg" transform="matrix(1,0,0,1,54.875,0)" opacity="1"><g><rect fill="#333" fill-opacity="0" stroke-width="2" x="0" y="0" width="60" height="60.04563468235859" class="image-rect"></rect> <svg x="0" y="0" width="60" height="60.04563468235859" filtersec="colorsb4301713443" class="image-svg-svg primary" style="overflow: visible;"><svg xmlns="http://www.w3.org/2000/svg" viewBox="0.0186874121427536 0.03168483451008797 71.8552474975586 71.91011047363281"><title>资源 73</title><path d="M71.85 12.61c0 2.6.05 5.21 0 7.81-.09 3.42-2.1 4.7-5.32 4.78-5.32.13-7.43-.78-7.59-4.23-.26-5.67-.21-11.36 0-17 .1-2.56 1.76-4 4.53-3.93h3.55c3.35-.15 4.72 1.74 4.82 4.79.07 2.57.01 5.17.01 7.78zM71.86 41.53v4.27c0 5.63-1.08 6.68-6.6 6.67-5.29 0-6.45-1.15-6.47-6.47 0-3.43-.07-6.87 0-10.31.11-3.79 1.49-5.11 5.18-5.19 7.16-.16 7.86.53 7.87 7.83z" fill="#4c88ef"></path><path d="M13 60.69c0 1.18-.07 2.37 0 3.55.63 8.1-2.69 7.89-9.93 7.18-2.2-.21-3-2.2-3-4.24C0 62.93 0 58.67.08 54.43c.09-3.1 1.76-4.77 5-4.63h2.84c3.73.09 5 1.36 5.06 5.21.02 1.9.02 3.79.02 5.68z" fill="#e54c41"></path><path d="M19.6 44v-2.48c0-5.88 1-6.86 6.81-6.82 5.08 0 6.2 1.15 6.25 6.34v7.82c-.05 3.15-1.55 4.87-4.83 4.79h-3.2c-3.61-.14-4.85-1.37-5-5-.08-1.65-.03-3.15-.03-4.65z" fill="#f9be15"></path><path d="M52.14 62.47v2.84c0 5.46-.93 6.36-6.42 6.36s-6.35-.89-6.37-6.42c0-2.6-.05-5.21 0-7.81.08-2.83 1.5-4.4 4.44-4.37h3.2c3.88.08 5 1.2 5.11 5.13.07 1.42.04 2.8.04 4.27z" fill="#3fa95b"></path><path d="M71.85 64.66c0 6.14-.82 7-6.52 7s-6.55-1-6.54-7c0-5.86 1.05-6.93 6.73-6.92 5.33 0 6.33 1.09 6.33 6.92z" fill="#4c88ef"></path><path d="M26.23 58.71c5.35 0 6.42 1.08 6.42 6.47S31.34 72 26 71.94s-6.43-1.27-6.43-6.56c.02-5.52 1.18-6.68 6.66-6.67z" fill="#f8be18"></path><path d="M52.15 40.81c0 6.16-5.37 9.21-10.68 6.32a4 4 0 0 1-2-3.14c-.13-.93 0-1.89-.1-2.83-.56-8.43 2.93-8 9.85-7.16 3.67.47 2.78 4.29 2.93 6.81zM45.91 15.56c5.37 0 6.27.94 6.25 6.52 0 5.21-1 6.24-6.22 6.24-5.7 0-6.61-.9-6.59-6.56.01-5.34.93-6.2 6.56-6.2z" fill="#3fa95b"></path></svg></svg> <!----></g></g> <g transform="translate(0,67.04563522338867)"><g data-gra="path-name" fill-rule="" class="tp-name iconsvg-namesvg" transform="matrix(1,0,0,1,0,0)" opacity="1"><g transform="scale(1)"><g><path d="M11.58-4.82C8.78-4.82 7.46-6.37 7.46-10.43 7.46-12.94 7.95-18.71 12.11-18.71 14.09-18.71 14.09-17.39 14.16-14.36 14.16-13.89 14.29-13.76 15.25-13.76 18.25-13.76 20-15.02 20-17.82 20-21.09 17.62-23.76 12.41-23.76 2.71-23.76 1.29-14.49 1.29-10.1 1.29-1.98 6.11 0.33 10.63 0.33 15.15 0.33 17.49-1.98 17.85-3.47 18.15-4.69 18.35-5.71 18.35-6.4 18.35-7.03 18.18-7.39 17.69-7.39 16.3-7.39 15.21-4.82 11.58-4.82ZM32.67-4.09C32.64-3.73 32.6-3.33 32.6-2.9 32.6-1.06 33.23 0 36 0L37.06 0C37.82 0 37.88-0.07 37.95-1.02 38.21-5.02 38.84-11.12 38.84-12.51 38.84-17 37.09-18.48 33.4-18.48 30.95-18.48 29.47-17.75 28.15-15.58 28.38-18.48 28.55-20.79 28.55-21.58 28.55-23.07 27.75-24.42 25.11-24.42L23.83-24.42C23.53-24.42 23.4-24.42 23.3-24.32 23.2-24.22 23.17-23.99 23.13-23.46 22.34-9.37 21.68-5.12 21.68-3.14 21.68-1.12 22.34 0 25.05 0L26.23 0C26.8 0 26.96-0.13 26.96-0.66 26.96-1.25 27.46-6.8 27.59-8.61 27.82-11.88 29.17-14.06 31.28-14.06 32.87-14.06 33.3-13 33.3-11.85 33.3-10.76 32.93-7 32.67-4.09ZM40.79-4.06C40.79-0.86 42.93 0.33 45.57 0.33 48.31 0.33 49.9-1.02 50.95-2.54 51.28-0.76 52.27 0.33 54.38 0.33 57.42 0.33 58.34-2.01 58.34-3.96 58.34-4.65 56.4-3.93 56.4-6.14 56.4-7.13 56.96-11.68 56.96-12.67 56.96-16.37 54.88-18.48 49.99-18.48 44.95-18.48 42.44-16.24 42.44-13.46 42.44-11.71 43.56-10.92 45.8-10.92 46.46-10.92 46.73-10.99 46.83-11.38 47.22-12.97 47.52-14.06 49.37-14.06 51.02-14.06 51.41-13.17 51.41-11.75 51.41-11.29 51.38-10.99 51.35-10.53 44.45-10.36 40.79-7.99 40.79-4.06ZM51.05-7.82C50.85-5.31 49.4-4.06 47.98-4.06 47.26-4.06 46.46-4.39 46.46-5.41 46.46-7.16 48.74-7.82 51.05-7.82ZM64.94 0C65.5 0 65.64-0.13 65.67-0.66 66.43-10.13 66.73-13.86 66.73-15.15 66.73-17.03 66.07-18.15 63.36-18.15L62.07-18.15C61.78-18.15 61.64-18.15 61.54-18.05 61.45-17.95 61.41-17.72 61.38-17.19 60.69-7.49 60.39-4.49 60.39-3.14 60.39-1.12 61.05 0 63.76 0ZM61.41-22.04C61.41-20.63 62.34-19.93 64.09-19.93 66.4-19.93 67.65-21.15 67.65-22.77 67.65-24.06 66.83-24.88 64.94-24.88 62.8-24.88 61.41-23.79 61.41-22.04ZM80.88-2.9C80.88-1.06 81.51 0 84.28 0L85.34 0C86.1 0 86.23-0.07 86.23-1.02 86.23-2.15 87.12-10.36 87.12-12.51 87.12-17 85.37-18.48 81.67-18.48 79.03-18.48 77.42-17.72 76.03-15.38 75.93-16.83 75.24-18.15 72.6-18.15L71.31-18.15C71.02-18.15 70.88-18.15 70.78-18.05 70.69-17.95 70.65-17.72 70.62-17.19 69.93-7.49 69.63-4.49 69.63-3.14 69.63-1.12 70.29 0 73 0L74.18 0C74.75 0 74.88-0.13 74.91-0.66 75.67-11.58 76.53-14.06 79.56-14.06 81.15-14.06 81.58-13 81.58-11.85 81.58-9.67 80.88-4.82 80.88-2.9ZM100.29-4.82C97.48-4.82 96.16-6.37 96.16-10.43 96.16-12.94 96.66-18.71 100.82-18.71 102.8-18.71 102.8-17.39 102.86-14.36 102.86-13.89 102.99-13.76 103.95-13.76 106.95-13.76 108.7-15.02 108.7-17.82 108.7-21.09 106.33-23.76 101.11-23.76 91.41-23.76 89.99-14.49 89.99-10.1 89.99-1.98 94.81 0.33 99.33 0.33 103.85 0.33 106.19-1.98 106.56-3.47 106.85-4.69 107.05-5.71 107.05-6.4 107.05-7.03 106.89-7.39 106.39-7.39 105.01-7.39 103.92-4.82 100.29-4.82ZM121.08-10.26C123.39-10.26 124.87-12.28 124.87-14.65 124.87-17.29 122.99-18.48 121.28-18.48 119.86-18.48 117.84-17.69 116.82-15.64 116.66-17 115.93-18.15 113.42-18.15L112.13-18.15C111.77-18.15 111.47-17.82 111.44-17.19 110.75-7.49 110.45-4.49 110.45-3.14 110.45-1.12 111.11 0 113.82 0L115.01 0C115.37 0 115.73-0.23 115.73-0.66 115.73-1.42 116.16-6.27 116.36-9.08 116.59-12.28 117.45-13.89 118.67-13.89 119.46-13.89 119.66-13.2 119.66-12.24 119.66-11.71 119.59-11.25 119.59-10.69 119.59-10.36 120.58-10.26 121.08-10.26ZM125.1-4.06C125.1-0.86 127.25 0.33 129.89 0.33 132.63 0.33 134.21-1.02 135.27-2.54 135.6-0.76 136.59 0.33 138.7 0.33 141.74 0.33 142.66-2.01 142.66-3.96 142.66-4.65 140.71-3.93 140.71-6.14 140.71-7.13 141.27-11.68 141.27-12.67 141.27-16.37 139.19-18.48 134.31-18.48 129.26-18.48 126.75-16.24 126.75-13.46 126.75-11.71 127.88-10.92 130.12-10.92 130.78-10.92 131.04-10.99 131.14-11.38 131.54-12.97 131.84-14.06 133.68-14.06 135.33-14.06 135.73-13.17 135.73-11.75 135.73-11.29 135.7-10.99 135.66-10.53 128.77-10.36 125.1-7.99 125.1-4.06ZM135.37-7.82C135.17-5.31 133.72-4.06 132.3-4.06 131.57-4.06 130.78-4.39 130.78-5.41 130.78-7.16 133.06-7.82 135.37-7.82ZM153.52-11.42C155.5-11.42 155.93-12.31 156.02-13.63L156.16-15.41C156.16-15.74 155.96-15.87 155.63-15.87L151.83-15.87C152.06-18.18 152.63-20.46 154.41-20.46 155.6-20.46 155.69-19.57 155.69-18.12 155.69-17.72 155.89-17.66 156.55-17.66 158.96-17.66 160.51-18.55 160.51-20.82 160.51-23.07 158.83-24.75 154.41-24.75 149.89-24.75 147.15-22.9 146.59-17.19L146.45-15.87C144.57-15.81 144.34-14.65 144.28-13.56 144.24-12.9 144.18-12.11 144.18-11.78 144.18-11.55 144.28-11.42 144.54-11.42L146.09-11.42C145.83-7.82 145.53-3.93 145.53-3.37 145.53-1.12 146.36 0 148.73 0L149.92 0C150.48 0 150.61-0.13 150.65-0.66 150.65-0.86 151.21-7.52 151.5-11.42ZM168.4-13.7C170.38-13.7 170.81-14.59 170.91-15.91L171.04-17.69C171.04-18.02 170.84-18.15 170.51-18.15L167.05-18.15C167.11-19.01 167.15-19.67 167.15-20.1 167.15-21.68 166.55-23 164.7-23L163.75-23C163.15-23 162.16-19.73 161.54-18.15 159.49-18.15 159.23-16.96 159.16-15.84L159.06-14.16C159.06-13.86 159.09-13.7 159.42-13.7L161.17-13.7C160.71-7.46 160.41-5.51 160.41-4.16 160.41-1.16 161.9 0.33 165.07 0.33 168.27 0.33 169.46-1.19 169.46-3.6 169.46-4.85 169.13-5.08 168.83-5.08 168.23-5.08 167.87-4.22 166.88-4.22 166.29-4.22 166.02-4.52 166.02-5.64 166.02-6.9 166.35-10.4 166.65-13.7Z" transform="translate(-1.2899999618530273, 24.8799991607666)"></path></g> <!----> <!----> <!----> <!----> <!----> <!----> <!----></g></g> <g data-gra="path-slogan" fill-rule="" class="tp-slogan iconsvg-slogansvg" fill="#333" transform="matrix(1,0,0,1,48.65500259399414,32.209999084472656)" opacity="1"><!----> <!----> <g transform="scale(1, 1)"><g transform="scale(1)"><path d="M1.08 0L1.08-7.87L3.49-7.87Q4.14-7.87 4.68-7.75Q5.22-7.63 5.60-7.36Q5.98-7.09 6.19-6.65Q6.40-6.20 6.40-5.56L6.40-5.56Q6.40-4.93 6.19-4.48Q5.98-4.02 5.59-3.72Q5.21-3.42 4.67-3.27Q4.14-3.12 3.49-3.12L3.49-3.12L2.08-3.12L2.08 0L1.08 0ZM2.08-3.94L3.37-3.94Q4.40-3.94 4.90-4.33Q5.40-4.72 5.40-5.56L5.40-5.56Q5.40-6.41 4.90-6.74Q4.39-7.07 3.37-7.07L3.37-7.07L2.08-7.07L2.08-3.94ZM8.99 0L8.99-7.87L9.99-7.87L9.99-0.85L13.43-0.85L13.43 0L8.99 0ZM16.84-3.20L19.21-3.20L18.84-4.40Q18.62-5.06 18.43-5.72Q18.24-6.37 18.04-7.06L18.04-7.06L18.00-7.06Q17.82-6.37 17.62-5.72Q17.43-5.06 17.22-4.40L17.22-4.40L16.84-3.20ZM20.20 0L19.46-2.40L16.59-2.40L15.84 0L14.82 0L17.48-7.87L18.61-7.87L21.27 0L20.20 0ZM24.49 0L24.49-3.05L22.13-7.87L23.20-7.87L24.22-5.65Q24.41-5.22 24.59-4.80Q24.77-4.38 24.97-3.94L24.97-3.94L25.02-3.94Q25.22-4.38 25.43-4.80Q25.63-5.22 25.81-5.65L25.81-5.65L26.82-7.87L27.86-7.87L25.50-3.05L25.50 0L24.49 0ZM33.62-2.10L33.62-2.10Q33.62-1.78 33.74-1.51Q33.86-1.24 34.07-1.04Q34.28-0.85 34.56-0.75Q34.84-0.65 35.17-0.65L35.17-0.65Q35.58-0.65 35.95-0.82Q36.32-0.98 36.67-1.28L36.67-1.28Q36.09-1.79 35.56-2.39Q35.02-2.99 34.60-3.62L34.60-3.62Q34.18-3.29 33.90-2.92Q33.62-2.56 33.62-2.10ZM34.54-6.17L34.54-6.17Q34.54-5.84 34.65-5.50Q34.75-5.15 34.92-4.79L34.92-4.79Q35.18-4.97 35.43-5.15Q35.67-5.34 35.86-5.54Q36.04-5.74 36.15-5.96Q36.26-6.18 36.26-6.44L36.26-6.44Q36.26-6.79 36.09-7.05Q35.91-7.31 35.52-7.31L35.52-7.31Q35.07-7.31 34.81-6.98Q34.54-6.66 34.54-6.17ZM39.40-0.67L39.14 0.14Q38.72 0.02 38.26-0.20Q37.81-0.42 37.33-0.76L37.33-0.76Q36.87-0.35 36.31-0.10Q35.76 0.14 35.06 0.14L35.06 0.14Q34.52 0.14 34.08-0.02Q33.64-0.18 33.33-0.47Q33.01-0.76 32.83-1.16Q32.66-1.56 32.66-2.04L32.66-2.04Q32.66-2.44 32.79-2.76Q32.91-3.08 33.13-3.36Q33.34-3.64 33.63-3.87Q33.91-4.10 34.21-4.31L34.21-4.31Q33.97-4.80 33.83-5.26Q33.69-5.72 33.69-6.16L33.69-6.16Q33.69-6.55 33.82-6.89Q33.96-7.22 34.20-7.48Q34.44-7.73 34.77-7.87Q35.11-8.02 35.52-8.02L35.52-8.02Q36.25-8.02 36.66-7.58Q37.06-7.15 37.06-6.46L37.06-6.46Q37.06-6.07 36.91-5.75Q36.75-5.42 36.50-5.14Q36.25-4.86 35.93-4.61Q35.61-4.37 35.29-4.13L35.29-4.13Q35.67-3.52 36.19-2.95Q36.72-2.39 37.28-1.92L37.28-1.92Q37.64-2.41 37.92-2.99Q38.20-3.56 38.38-4.25L38.38-4.25L39.31-4.25Q39.07-3.47 38.73-2.76Q38.40-2.05 37.93-1.43L37.93-1.43Q38.34-1.15 38.71-0.96Q39.08-0.77 39.40-0.67L39.40-0.67ZM45.09 0L45.09-7.87L49.62-7.87L49.62-7.03L46.08-7.03L46.08-4.56L49.07-4.56L49.07-3.71L46.08-3.71L46.08-0.85L49.74-0.85L49.74 0L45.09 0ZM53.40-3.20L55.76-3.20L55.39-4.40Q55.17-5.06 54.98-5.72Q54.79-6.37 54.60-7.06L54.60-7.06L54.55-7.06Q54.37-6.37 54.18-5.72Q53.98-5.06 53.77-4.40L53.77-4.40L53.40-3.20ZM56.76 0L56.01-2.40L53.14-2.40L52.39 0L51.37 0L54.03-7.87L55.16-7.87L57.82 0L56.76 0ZM60.94-7.07L60.94-4.14L62.26-4.14Q63.18-4.14 63.67-4.52Q64.16-4.90 64.16-5.66L64.16-5.66Q64.16-6.44 63.67-6.76Q63.18-7.07 62.26-7.07L62.26-7.07L60.94-7.07ZM65.39 0L64.26 0L62.36-3.32L60.94-3.32L60.94 0L59.94 0L59.94-7.87L62.40-7.87Q63.00-7.87 63.51-7.76Q64.02-7.64 64.39-7.38Q64.75-7.12 64.96-6.70Q65.16-6.28 65.16-5.66L65.16-5.66Q65.16-4.74 64.68-4.19Q64.20-3.64 63.40-3.43L63.40-3.43L65.39 0ZM67.91 0L67.91-7.87L68.94-7.87L71.79-2.93L72.64-1.30L72.69-1.30Q72.65-1.90 72.61-2.54Q72.57-3.18 72.57-3.80L72.57-3.80L72.57-7.87L73.52-7.87L73.52 0L72.48 0L69.63-4.96L68.78-6.58L68.73-6.58Q68.78-5.98 68.82-5.36Q68.86-4.74 68.86-4.12L68.86-4.12L68.86 0L67.91 0Z" transform="translate(-1.08, 8.016)"></path></g></g></g></g></g><defs v-gra="od"></defs></svg>